<svg fill="none" height="371" viewBox="0 0 370 371" width="370" xmlns="http://www.w3.org/2000/svg"><g stroke="#1f0d68" stroke-width="10"><path d="m185.262 242.184c-15.417-3.4-61.893-54.459-64.504-67.463-2.611-13.003 16.662-20.517 16.535-29.438-.126-8.922-29.882-58.0114-39.7913-60.6538-9.9089-2.6423-41.5454 25.4978-42.0605 46.6548-.4686 19.246 25.6506 68.125 62.7198 108.071 30.287 32.638 83.934 69.409 106.274 69.953 22.341.544 52.348-31.312 50.494-39.933-1.853-8.62-46.448-42.534-56.391-43.805-9.942-1.271-24.205 18.615-33.276 16.614z"/><g stroke-linecap="round" stroke-linejoin="round"><path d="m326.706 168.459c.155-16.895-3.02-33.655-9.343-49.323-6.322-15.668-15.669-29.9369-27.506-41.9927-11.837-12.0557-25.933-21.6618-41.483-28.27-15.549-6.6081-32.248-10.0889-49.143-10.2434"/><path d="m289.093 168.114c.11-11.955-2.137-23.815-6.611-34.902-4.474-11.088-11.088-21.185-19.465-29.716-8.376-8.5312-18.351-15.3289-29.354-20.0051-11.004-4.6762-22.821-7.1393-34.776-7.2487"/><path d="m249.226 167.749c.061-6.72-1.201-13.386-3.716-19.618s-6.233-11.908-10.941-16.703-10.315-8.616-16.5-11.245c-6.185-2.628-12.827-4.013-19.547-4.074"/></g></g></svg>